<svg xmlns="http://www.w3.org/2000/svg" xmlns:xlink="http://www.w3.org/1999/xlink" width="500" height="250" viewBox="0 0 500 250"><defs><path id="a" d="M0 250h499.709V.056H0z"/></defs><g fill="none" fill-rule="evenodd"><path fill="#FFF" d="M418.721 43.243v-2.962h-2.218"/><path stroke="#FFF" stroke-width="1.6" d="M418.721 43.243v-2.962h-2.218"/><path fill="#FFF" d="M142.971 40.102h269.17-269.17z"/><path stroke="#FFF" stroke-dasharray="9.726399414157868,9.726399414157868" stroke-width="1.6" d="M412.14 40.102H142.972"/><path fill="#FFF" d="M140.443 40.28h-2.958v2.963"/><path stroke="#FFF" stroke-width="1.6" d="M140.443 40.28h-2.958v2.963"/><path fill="#FFF" d="M137.38 221.843V47.782v174.061z"/><path stroke="#FFF" stroke-dasharray="9.388799489212033,9.388799489212033" stroke-width="1.6" d="M137.38 47.782v174.061"/><path fill="#FFF" d="M137.484 224.526v2.963h2.959"/><path stroke="#FFF" stroke-width="1.6" d="M137.484 224.526v2.963h2.959"/><path fill="#FFF" d="M144.569 226.962h269.169-269.17z"/><path stroke="#FFF" stroke-dasharray="9.726399414157868,9.726399414157868" stroke-width="1.6" d="M144.569 226.962h269.169"/><path fill="#FFF" d="M416.503 227.49h2.218v-2.963"/><path stroke="#FFF" stroke-width="1.6" d="M416.503 227.49h2.218v-2.963"/><path fill="#FFF" d="M418.53 220.137V46.075v174.062z"/><path stroke="#FFF" stroke-dasharray="9.388799489212033,9.388799489212033" stroke-width="1.6" d="M418.53 220.137V46.075"/><path fill="#FFF" d="M419.32 44.829v-4.515h-4.227"/><path stroke="#FFF" stroke-width="5.6" d="M419.32 44.829v-4.515h-4.227"/><path fill="#FFF" d="M207.668 40.102h75.08-75.08z"/><path stroke="#FFF" stroke-dasharray="17.0495992034912,255.7415863191127" stroke-width="5.6" d="M282.748 40.102h-75.08"/><path fill="#FFF" d="M141.157 40.314h-3.699v4.515"/><path stroke="#FFF" stroke-width="5.6" d="M141.157 40.314h-3.699v4.515"/><path fill="#FFF" d="M137.38 179.18v-48.634 48.635z"/><path stroke="#FFF" stroke-dasharray="10.39359908142092,155.9015898286343" stroke-width="5.6" d="M137.38 130.546v48.635"/><path fill="#FFF" d="M137.458 222.751v3.95h3.7"/><path stroke="#FFF" stroke-width="5.6" d="M137.458 222.751v3.95h3.7"/><path fill="#FFF" d="M273.962 226.962h75.08-75.08z"/><path stroke="#FFF" stroke-dasharray="17.0495992034912,255.7415863191127" stroke-width="5.6" d="M273.962 226.962h75.08"/><path fill="#FFF" d="M415.093 226.702h4.226v-3.95"/><path stroke="#FFF" stroke-width="5.6" d="M415.093 226.702h4.226v-3.95"/><path fill="#FFF" d="M418.53 136.519V87.884v48.635z"/><path stroke="#FFF" stroke-dasharray="10.39359908142092,155.9015898286343" stroke-width="5.6" d="M418.53 136.519V87.884"/><path fill="#F7F9F6" d="M347.444 133.959H500V23.038H347.444z"/><path fill="#1A3455" d="M347.444 35.836H500V23.038H347.444z"/><path fill="#FFC107" d="M494.904 29.264c0 1.744-1.323 3.158-2.957 3.158-1.633 0-2.956-1.414-2.956-3.158s1.323-3.158 2.956-3.158c1.634 0 2.957 1.414 2.957 3.158zm-9.979 0c0-1.744-1.323-3.158-2.957-3.158-1.632 0-2.956 1.414-2.956 3.158s1.324 3.158 2.956 3.158c1.634 0 2.957-1.414 2.957-3.158m-9.978 0c0-1.744-1.323-3.158-2.957-3.158-1.633 0-2.957 1.414-2.957 3.158s1.324 3.158 2.957 3.158c1.634 0 2.957-1.414 2.957-3.158"/><path fill="#3E7584" d="M480.345 104.545c-.204-.185-.305-.508-.418-.8-.191-.495-.344-1.044-.73-1.41-.404-.384-.63-.76-.352-1.334.047-.097-.024-.26-.034-.392-.072-.997-.927-1.622-1.079-2.582-.002-.014-.063-.017-.111-.03a3.073 3.073 0 0 0-.48 1.686c.02.716-.383 1.195-.808 1.553-.41.346-.69-.324-1.064-.448-.016-.006-.028-.026-.042-.037-.89-.666-1.288-.848-.452-2.022.008-.01 0-.035-.002-.052-1.191-.866-2.447-.361-3.232 1.31-.271-.059-.494-.207-.693-.414-.097-.103-.178-.212-.366-.175-.516.101-1.565 1.188-1.627 1.728-.176.085-.291-.126-.55-.101-.297.971-.85 1.642-1.907 1.622-.065-.001-.133.059-.199.09-.563.261-1.113.568-1.694.769-.366.126-.492.391-.661.695-.254.45-.008.9-.065 1.355-.106.85-.327 1.72-.046 2.576.198.6-.047 1.096-.36 1.486-.343.428-.182.528.175.678.234.1.448.098.676-.004.6-.268 1.216-.477 1.866-.558.337-.042.688.028 1.004-.188a4.014 4.014 0 0 1 1.882-.694c.75-.072 1.548-.51 2.256.253.302.326.389.747.617 1.098.46-.464.924-.725 1.276-.67-.425.337-.268.752-.113 1.082.19.405.16.758-.014 1.123.361.369.845.753 1.202.572.507-.258.727-.004 1.022.28.492-.446.982-.846 1.686-.561.403-.95 1.33-1.386 1.768-2.272a.365.365 0 0 1 .166-.144c.945-.462 1.456-1.366 1.77-2.314.298-.893.656-1.916-.267-2.754M405.79 56.019c.034-.22.247-.148.295-.256.206-.459.21-.466.606-.14.393.326.393.326.804.09-.19-.503-.875-.406-1.068-.965 1.406-.072 1.66-.403 2.519-1.501.057-.073.1-.133.095-.249-.03-.514.336-.932.801-1.035.42-.094.908.012 1.298-.457-.185 0-.316-.035-.424.005-.618.226-1.172.07-1.707-.279-.085-.056-.21-.044-.311-.08-1.273-.436-2.563.03-3.85-.071-.765-.06-1.553.317-2.339.369-.675.043-1.333.26-2.04.092-.991-.236-2.024-.27-2.964.237-1.053.566-2.164.823-3.334.884-.165.5.015.662.418.733.289.05.55.076.847.017 1.035-.205 1.857.304 2.043 1.61.021.145.076.186.16.254.59.474.563 1.15-.064 1.571-.167.113-.349.206-.51.33-.335.264-.605.57-.343 1.055.099.186.04.343-.048.49-.123.207-.064.392-.01.605.205.807.869 1.049 1.474 1.216.495.137.832-.343 1.065-.807.052-.101.131-.186.188-.284.482-.829 1.1-1.396 2.076-1.457.579-.035 1.091-.298 1.564-.71.32-.278.731-.61 1.177-.52.946.188 1.75-.37 2.66-.377-.243-.703-.821.062-1.078-.37m69.371 37.32c-.163.14-.285.34-.489.43-.296-.114-.409-.37-.483-.657-.216-.842-.529-.955-1.223-.443.227.24.606.247.792.553-.265.424-.227.759.09.754.61-.008 1.045.406 1.563.609.508.2.772.594.884 1.061-.047.308-.349.276-.413.515.063.04.136.125.184.11.463-.143.738.148 1.07.427.423.356.868.189 1.179-.339.172-.292.38-.454.717-.298.272.126.56.27.686.547.395.87 1.161.998 1.98 1.23-.252-.396-.564-.586-.846-.814-.408-.329-.797-.788-.771-1.292.025-.49-.116-.712-.425-.977-.82-.7-1.81-1.01-2.731-1.487-.666-.346-1.172-.432-1.764.07m-8.1-3.832c.179-.49-.278-.67-.525-.905-.227-.217-.397.046-.508.242-.169.295-.384.555-.7.587-.287.029-.435.154-.487.421-.138.71-1.021.616-1.208 1.3-.042.158-.302-.06-.442-.025-.273.068-.36.324-.312.586.077.413.198.819.304 1.226.122.461.407.643.855.731.39.075.78-.073 1.152.074.607.24.657.173.957-.44.308-.63.39-1.402 1-1.92-.47-.87-.453-.864-.086-1.877M386.79 56.03c.483-.195.927-.02 1.38.08a.597.597 0 0 0 .413-.047c.519-.237 1.02-.127 1.283.371.253.477.517.912 1.003 1.203-.266.109-.47.386-.787.177-.362-.24-.681-.015-.85.242-.25.377-.52.35-.849.255-.307-.088-.6-.113-.84.18.118.34.343.166.496.111.545-.193.935-.144 1.25.478.285.564 1.047.774 1.574.547-.203-.171-.39-.33-.594-.505.422-.403.716.145 1.046.111.487-.423.002-.812-.034-1.174.261-.313.492-.216.755-.07.667.366.672.358 1.017-.348-.095-.236-.307-.316-.498-.425-.275-.158-.503-.412-.416-.733.108-.395-.134-.483-.339-.515-.52-.084-.91-.334-1.164-.869-.523.38-.929.162-1.322-.212-.208-.2-.442-.231-.748-.183-.484.078-.765.455-1.167.76-.166-.49.372-.568.366-.952-.77.118-1.347.488-1.812 1.215.328.165.56.414.836.303m47.129 44.342c-.537.236-.819.577-.7 1.108.176.8-.062 1.415-.47 2.039-.226.347-.007 1.424.261 1.666.41.367 1.407.2 1.556-.778.212-1.39.797-2.635 1.19-3.952.202-.674.137-1.234-.207-1.878a2.889 2.889 0 0 1-1.63 1.795m-58.242-44.854c.499-.273 1.028-.43 1.543-.025-.075.314-.376.102-.489.275.36.174.806-.143 1.184.259-.484.262-.962.047-1.416.17.926.715 1.546.801 2.56.346.222-.1.42-.185.67-.071.655.298 1.208.015 1.782-.4-.22-.14-.399-.258-.607-.391.137-.293.366-.533.363-.864-.515-.193-.602.465-.96.503-.238-.087-.056-.394-.296-.49-.424.41-.93.25-1.303-.045-.85-.672-1.69-.74-2.597-.212-.395.229-.783.474-1.172.711.167.398.39.423.738.234m85.571 38.057c-.495-.552-.993-1.091-1.209-1.847-.049-.17-.217-.191-.327-.285-.405-.346-.934-.565-1.201-1.047-.412-.74-1.039-1.064-1.827-1.32.09.432.285.675.502.916.275.305.564.588.804.936.797 1.157 1.257 2.547 2.208 3.596.274.302.512.635.936.301.333-.264.409-.923.114-1.25m-71.25-40.54c-.43.179-.855.045-1.361-.01.227.212.409.347.601.33.554-.043 1.108-.211 1.614.206.094.077.188-.072.28-.13.745-.471 1.627-.616 2.365-1.113.152-.102.343-.097.525-.119 1.195-.138 2.291-.586 3.4-1.23-.677-.042-5.845.465-6.4.635.711-.02 1.394.266 2.12.134-.771.709-1.697.06-2.48.345-.013.246.23.283.162.472-.133.167-.305.1-.463.11-.104-.133-.22-.148-.397-.024l.384.04c-.005.247-.166.277-.35.354m83.353 19.357c-.07-.21-.172-.416-.126-.668.107-.579-.358-1.13-.772-1.29-.247-.095-.36.023-.274.282.077.235.181.467.312.673.182.287.15.548-.038.79-.345.449-.786 1.02-1.255 1-.613-.026-.87.413-1.365.619.684.441 1.588-.698 2.124.648.073-.668.3-.83.768-.855.69-.038.867-.473.625-1.199m-59.069-7.157c-.295-.473.187-.511.358-.753-.212-.279-.605.013-.717-.444-.151-.611-.441-1.168-1.06-1.375.062-.243.294-.305.312-.58-.298.139-.351-.156-.476-.326-.342.164-.557.46-.466.77.065.227-.11.767.482.671.236-.039.415.735.204.782-.43.094-.444.52-.667.748.127.259.505.04.626.368-.243.253-.628.171-.89.493.79-.14 1.5-.364 2.294-.354m68.23 50.169c-.28.124-.534.319-.802.475-.14.081-.247.183-.2.366.047.176.19.215.344.217.253.002.504.025.74-.117 1.087-.648 2.063-1.478 3.156-2.119.346-.202.14-.486-.13-.791-.878.975-1.99 1.473-3.108 1.969M468.223 91.79c.277-.105.536-.163.837-.018.587.283.826.138 1.006-.594-.416.325-.833.355-1.296.266-.658-.128-1.005.162-1.113.841-.023.15.02.319-.02.462-.15.55-.464 1.067-.157 1.683.048.096-.087.324.093.442.094.062.173-.006.252-.049.215-.118.104-.276.064-.445-.08-.347-.205-.726.283-.912.277.254.183.872.743.91.132-.426-.103-.73-.22-1.069-.153-.448.296-.542.562-.862-.336.08-.574.1-.786.191-.324.137-.468-.118-.543-.317-.083-.225.057-.438.295-.529m19.737 19.272c.06-.265.074-.443-.245-.599 0 .204-.02.36.003.507.15.944.145.949-.573 1.428-.178.118-.476.292-.372.495.242.474-.106.629-.342.87.423.095 2.264-1.265 2.421-1.75-.517.118-1.017-.39-.892-.951m-80.27-52.967c-.205-.068-.94-.02-1.011.56 1.1.771 2.034.361 2.97-.285-.567-.918-1.317-.062-1.96-.275m57.861 38.314c-.482-.39-1.063-.427-1.478-.818-.101-.097-.226-.066-.36-.028-.411.117-.786.173-1.222-.092-.361-.22-.882-.42-1.255.135.461.364 3.769.992 4.314.803m-88.515-16.627a1.85 1.85 0 0 0-1.168.482c.185.154.329.026.433-.03.916-.491 1.638.119 2.267.595.697.525.913.709 1.773.336-1.136-.501-2.005-1.472-3.305-1.383m90.936 2.706c-.072-.146-.207-.236-.354-.207-.175.034-.19.208-.19.369a1.58 1.58 0 0 1-.095.62c-.192.483.623 1.736 1.115 1.732a.102.102 0 0 0 .051-.017c.263-.17.482.03.794.123-.07-.375-.187-.542-.516-.51-.498.048-.9-.53-.652-1.003.241-.458.019-.761-.152-1.107m-75.288-15.831c-.06-.315-.238-.51-.53-.568-.404-.08-.476-.341-.367-.716l-.017-.02c-.592.36-.915 1.02-1.499 1.451 1.627.27 1.877.252 2.413-.147m17.732-1.671c.306-.099.586-.33.935-.375.113-.014.268-.095.252-.258-.038-.392.157-.694.355-1.038-.695-.482-1.103.193-1.738.38.665.403-.376.873.196 1.291M390.43 53.913c-.316-.27-.6-.185-.865-.193-.664-.023-1.326.173-1.977-.276-.292-.203-.67.087-.849.656 1.259-.207 2.47.538 3.692-.187m78.741 33.706c-.214-.057-.244.013-.331.494.518-.376.66-.027.776.4.108.396.293.622.68.271-.387-.615.223-.35.382-.446-.026-.556-.27-.99-.47-1.491-.208.514-.425.933-1.037.772m2.751-17.467c.133-1.037.686-.248 1.013-.48-.007-.22.282-.255.466-.473l-1.828-.819-.044-.157a.257.257 0 0 0-.042.03c.024.046.051.09.079.134-.039.262.337.456.117.74-.368.476.042.657.239 1.025m-84.872 49.868c-.094.42.192.494.446.638.583.334 1.179.065 1.78.067-.623-.215-1.091-.706-1.66-1.013-.353-.19-.487-.052-.566.307m-4.388-38.025c-.52-.482-1.136-.504-1.784-.43-.099.152.073.34-.071.502-.234.142-.514.009-.84.084.74.367 1.878.294 2.695-.156m91.329 31.525c-.015.307-.003.502-.04.686-.035.183-.12.354-.181.528.5.298 1.175-.118 1.58-1.019-.456.005-.9.11-1.359-.195m-2.955-47.345c-.343-.497-.781-.78-1.306-.97.499.653.763 1.43 1.152 2.134.117.211.299.458.633.286-.118-.424-.474-.629-.713-.933-.236-.301-.223-.497.234-.517m-21.281 20.87c-.295.439-.197.84-.107 1.251.05.226.012.49.358.392.314-.09.43-.249.33-.625-.103-.393-.386-.634-.581-1.018m-66.217-31.7c.549-.329.638-.352.69-.877-.64-.166-1.032.744-1.737.456.354.135.494.753 1.047.421m6.257-3.465c-.7-.518-1.219-.023-1.868.285.758.375 1.33.301 1.868-.285m-5.404 7.108c.508.184 1.077-.415 1.503.202.333-.442.079-.584-.171-.72-.61-.335-.87-.241-1.332.518m82.781 21.227c.111-.505.416-.964.028-1.455-.618.555-.654 1.067-.028 1.455M364.817 66.409c-.232-.895-.537-1.13-1.043-.83.165.528.516.761 1.043.83m52.501-3.614c.032.212-.044.642.399.582.24-.388.118-.817.217-1.263-.44.093-.67.324-.616.681m.399.582l-.003.006h.002a.025.025 0 0 0 .004-.006h-.003zm-33.067-8.351c.484-.217 1.053.002 1.54-.407-.563-.32-1.106-.198-1.54.407m103.061 48.854c-.56-.623-1.007-1.14-1.296-1.808-.208.54.423 1.48 1.296 1.808m-18.451-6.5c.568-.173.942-.75 1.701-.724-.912-.36-1.378-.13-1.7.724m12.381-2.02c.27-.262.744-.39.668-1.121-.358.68-.883.806-1.428.96.265.209.503.411.76.161m-11.404-19.897c.34-.576.261-.782-.48-1.28-.168.642.493.797.48 1.28M390.47 92.254c.019.27.226.326.43.338.201.01.332-.106.38-.308-.067-.255-.242-.371-.448-.363-.168.008-.38.075-.362.333m71.543-10.39c-.104.253.104.402.328.467.257-.17.36-.43.451-.758-.35-.073-.65-.018-.779.29m4.371 5.594c.658-.198 1.002-.652.992-1.222-.407.306-.651.722-.992 1.222m5.103 4.641c.436-.367-.348-.956.219-1.312-.629.085-.313.697-.505 1.037-.104.187.139.244.286.275m-53.948-21.739c-.587.332-.216.66-.076 1.051.385-.369.322-.684.076-1.051m1.551 1.725l.862.457.161-.486c-.375-.097-.689-.279-1.023.03M383.018 56.48c-.403-.373-.692-.107-1.023.1.42.532.67-.056 1.023-.1m41.862 17.003c-.397-.263-.783-.224-1.27-.179.452.251.807.468 1.27.179m42.89 22.945c.294.603.66.173.977.183-.29-.152-.573-.328-.978-.183m1.007-32.354c.169.364.301.675.722.826-.116-.444-.264-.739-.722-.826m-2.606 32.513c.298.338.575.098.905.023-.448-.225-.471-.225-.904-.023m4.041-10.423c-.256-.463-.256-.463-.635-.6.124.287.216.62.635.6"/><path fill="#3E7584" d="M471.198 74.124c-.558.1-.558.1-.247.54.131-.143.332-.225.247-.54m1.17 19.55c-.301-.01-.554-.256-.926-.046.335.257.611.307.926.046m20.386 7.581c.157.47.157.47.563.15-.147-.149-.305-.244-.563-.15m-64.577-28.057c-.101.296-.597.018-.624.503.315-.067.573-.127.624-.503m44.328 37.438c.133-.2.183-.266.122-.373-.105.027-.113.115-.122.373M391.916 65.29c-.077-.05-.113.004-.147.062l.017.022c.053-.012.125.012.13-.084"/><path fill="#3E7584" d="M435.336 68.19c.097.042.196.105.288-.044v.001c-.092.148-.19.085-.288.042m21.918 15.398c.105.45.184.92.421 1.307.286.465.223.908.183 1.424-.036.452-.423 1.057.187 1.43.457.28.694.676.793 1.233.176.986.614 1.796 1.546 2.192.201-.43-.21-1.987-.657-2.268-.738-.463-1.096-1.223-1.488-1.969-.099-.187-.05-.36-.015-.556.061-.33.257-.652.098-1.012-.074-.166-.097-.357.055-.48.192-.154.345.026.477.138.532.449 1.135.819 1.435 1.514l.411-.155c.348.237.006.56.115.8a.331.331 0 0 0 .46-.11c.241-.443.647-.634 1.017-.902.285-.205.401-.574.304-.982-.226-.951-.543-1.815-1.348-2.421-.36-.272-.735-.666-.621-1.247.122-.612.583-.861 1.09-.997.432-.115.547.315.722.619.474-.631 1.024-.969 1.776-1.027.536-.042 1.04-.238 1.45-.768.507-.658.576-1.436.816-2.171.171-.527.336-1.016-.507-1.108.489-.371.311-.61-.018-.818-.255-.16-.47-.349-.587-.655-.123-.32-.252-.636-.602-.775-.181-.07-.154-.247-.125-.442.082-.546.601-.622.88-.96-.354-.207-.72-.32-.87-.275-.614.19-1.062-.007-1.47-.676a3.83 3.83 0 0 0 .911-.848c.244-.308.495-.22.602.191.053.207.087.412.267.545.056-.02.111-.03.157-.057.762-.46.97-.377 1.25.493.049.15.169.176.3.204.51.115.807.479.975.984.095.29.212.569.403.821.311-.166.64-.277.893-.51-.146-1.186-1.294-1.372-1.862-2.138.231-.272.75-.364.619-.647-.279-.599.2-.856.285-1.273.741.174.977.143 1.141-.191.446-.908.586-1.893.37-2.871-.177-.805-.783-1.38-1.307-1.958-.232-.256-.514-.733-.885-.558-.738.35-1.226-.103-1.81-.402.232-.385.346-.762.432-1.16.167-.775.799-1.207 1.516-1.007.34.093.646.085.952-.038a1.098 1.098 0 0 1 1.04.09c.326.204.612.148.911-.071-.136-.397-.125-.814.15-1.087.274-.275.618.025.93.072.116.017.217.133.328.196.269.152.457.156.414-.263-.038-.374.22-.393.415-.295.292.144.527.492.418.788-.146.4-.158.836-.328 1.21-.177.386-.148.708.108 1.011.36.426.63.932 1.107 1.258.342.233.685.49.901.904.185.352.444.327.682.032-.163-.42-.163-.42-.044-1.49.033-.283-.649-1.338-1.009-1.462-.415-.143-.58-.472-.78-.961.687-.109 1.197-.812 1.959-.397.25.137.43-.05.503-.192.301-.59.727-.822 1.343-.697.066.012.179-.038.194-.227-.652-.283-1.322-.576-2-.872.224-.434.514-.053.75-.14.04-.18-.221-.287-.06-.505.936.004 1.791.743 2.883.578-.589-.585-1.025-1.224-1.854-.785-.096.05-.304-.097-.438-.19-.454-.322-.977-.389-1.494-.45-.256-.03-.506-.062-.74-.165-1.27-.56-2.632-.593-3.968-.775-.047-.007-.097.023-.164.04.017.167.245.287.057.52a4.084 4.084 0 0 0-2.757-.335 1.257 1.257 0 0 1-.902-.133c-.646-.389-1.315-.376-2.024-.344-1.33.062-2.57-.496-3.86-.738-.598-.113-1.226-.375-1.84-.015.065.399-.292.666-.74.598-.352-.054-.76-.315-1.048-.11-.732.518-1.234.013-1.758-.352-.453-.316-.926-.65-1.453-.513-1.167.307-2.334-.216-3.492.078-.062.015-.145-.013-.207-.045-.646-.34-1.293-.227-1.935 0-.166.058-.31.11-.395-.12.27-.351.698-.454 1.06-.756-.633-.609-1.34-.653-2.057-.517-.346.064-.616.05-.916-.158-.459-.32-.92-.397-1.383.066-.206.206-.433.493-.804.37-.867-.287-1.646.178-2.482.268.153.502-.019.76-.408.63-.365-.123-.679-.007-.92.185-.55.435-1.048.944-1.834.672 0 .581.327.762.669.966.396.234.499.647.257 1.033-.185.296-.485.555-.859.366-.032-.39.496-.542.247-.923a23.052 23.052 0 0 0-1.208-1.702c-.228-.289-.561-.215-.856-.068-.197.097-.44.234-.409.48a.85.85 0 0 0 .518.688c.222.1.49.16.627.45-.109.194-.248.378-.463.23-.51-.348-1.11-.313-1.654-.504-.16-.056-.336-.14-.467-.018-.464.423-1.043.29-1.57.409-.226.05-.475.227-.68.06-.313-.258-.606-.15-.925-.07-.29.075-.522.255-.777.398-.383.216-.805.566-1.108-.153-.086-.205-.303-.142-.469-.055-.052.229.205.383.114.605-.031.032-.053.07-.084.084-.396.192-.98.026-1.122.715-.021.108-.249.165-.437.084-.154-.067-.316-.204-.51-.118.07.208.394.136.397.424-.278.21-.525.171-.849.057-.642-.227-.675-1.101-1.35-1.271.534-.32.994-.05 1.46.087.503.146.977.16 1.422-.243-.075-.104-.116-.224-.184-.246-.816-.254-1.565-.831-2.482-.615-.193.045-.297-.114-.432-.198-1.139-.714-2.344-.696-3.571-.355-.26.071-.492.286-.751.322-.99.14-1.479.978-2.013 1.684-.464.61-1.004 1.068-1.655 1.329-.928.37-.996.392-.957 1.403.024.607.592.994 1.119.75.213-.098.412-.232.63-.357.37.257.571.638.696 1.067.09.315.235.66.542.628.335-.034.71-.215.836-.618.147-.467.297-.9.76-1.123.106-.05.163-.2.162-.355-.042-.033-.079-.076-.126-.1-.865-.448-.605-1.205.08-1.508.362-.161.628-.455.838-.8.093-.15.19-.278.345-.357.15-.077.283-.159.45-.019.178.153.168.31.092.51-.13.35-.383.6-.583.893-.307.45-.225.756.2 1.054.462.324.931.275 1.4.09.419-.164.747.023 1.11.176-.527.88-1.425-.032-1.995.52.023.303.346.371.377.635-.255.32-.255.32-.552.208-.478-.182-.671 0-.585.547.074.466-.5 1.105-.882.904-.482-.252-.837.02-1.234.145-.58.187-1.145-.296-1.726-.025-.034.017-.134-.115-.2-.182-.103-.105-.23-.092-.357-.091-.271.37-.557.674-1.07.609-.185-.024-.368.155-.54.318-.627.586-1.298 1.12-1.958 1.666-.097.08-.228.163-.342.161-.543-.012-.979.49-1.544.359-.014-.003-.048.09-.072.136.095.186.257.214.414.256.44.12.65.455.734.905.168.891-.23 1.43-1.066 1.4-.411-.017-.824-.097-1.228-.184-.675-.145-.917.074-.862.801.01.11-.03.226-.05.339-.112.702-.388 1.394-.126 2.158.383.01.763.1 1.08.388.1.09.225.119.353.03.242-.17.517-.144.79-.15.518-.015 1.281-.506 1.322-.953.09-.993.79-1.347 1.46-1.758.027-.016.036-.06.05-.084.015-.168-.172-.18-.2-.307.273-.243.558-.506.928-.351.507.207.887-.07 1.257-.325.549-.38.685-.367.992.271.254.53.66.956 1.14 1.148.905.362 1.163.606 1.206 1.583.531-.195.343-.608.233-.947.251-.306.504.053.741-.073-.064-.206-.243-.248-.384-.3-.9-.322-1.43-1.142-2.1-1.768-.143-.135-.29-.391-.05-.61.218-.198.334-.012.533.11.553.34.978.898 1.594 1.1.585.19.855.59.907 1.203.05.579.341.913.873 1.013.12.022.265-.025.282.033.085.425-.307.206-.323.45.048.088.08.18.137.252.11.14.175.382.408.306.207-.067.203-.31.25-.48.075-.28-.065-.522-.215-.75-.16-.245-.176-.469.127-.607.496-.225 1.002-.354 1.548-.253.232.042.452-.041.657-.179-.693-.674.037-2.459 1.276-2.967-.119.452.483.18.453.618-.026.39.248.597.587.453.181-.077.35-.19.564-.31-.251-.082-.497-.072-.593-.45.51-.123.917-.553 1.492-.539l.001.001c.015.432-.125.827-.286 1.243.51.317 1.014.615 1.502.942.217.146.443.387.366.655-.072.24-.223.472-.551.564-.504.14-.962.06-1.347-.216-1.059-.757-2.045-.047-3.06.094-.042.007-.083.069-.113.113-.204.31-.442.481-.824.352-.116-.038-.279.053-.332.222.297.292.297.292.402.769.14.634.842 1.147 1.29.878.352-.21.627-.153.902.063.263.208.5.156.76.019.192-.102.372-.241.606-.225.264.018.45.163.362.435-.198.607-.145 1.252-.318 1.868-.207.746-.482.959-1.2.742-.22-.065-.428-.208-.681-.078-.45.232-.913.082-1.37.012-.338-.053-.736-.034-1.115-.197-.366-.208-.72-.444-1.1-.618-.496-.225-1.032.015-.946.43.102.503-.206.634-.45.91-.446-.33-1.169-.237-1.418-.614-.447-.677-1.055-.73-1.662-.912-.487-.15-.71-.574-.623-1.103.055-.336.012-.704-.2-.955-.222-.261-.512-.066-.748.055-.506.259-1.05.189-1.552.114-.9-.135-1.663.137-2.398.628-.36.242-.718.341-1.175.248-.327-.066-.55-.374-.915-.346-.265.48-.574.923-1.07 1.172-.492.247-.73.746-.76 1.255-.043.7-.474.992-.915 1.324-.176.13-.35.263-.526.395-.064.067-.166.16-.206.212-.643.818-1.003 1.825-1.577 2.693-.19.287-.169.649-.002 1.03.35.796.32 1.632-.168 2.354-.203.298-.22.49-.043.755.193.291.22.573-.165.88.4-.005.327.336.521.464.58.385.937.977 1.184 1.636.09.238.18.452.344.643.33.385.693.725 1.08 1.047.487.407.988.565 1.596.367.561-.184 1.128-.44 1.725-.122.108.057.208-.005.313-.034.56-.15 1.093-.39 1.642-.573 1.094-.365 1.496-.226 1.918.85 1.037-.083 1.037-.083 1.237.077.54.431.665 1.085.405 1.985-.135.47-.41.994-.007 1.418.725.766 1.123 1.692 1.52 2.676.196.481-.03.918.175 1.31.4.759.068 1.362-.242 2.04-.45.981-.686 2.021-.048 3.056.631 1.023.93 2.156 1.014 3.375.025.372-.01.817.228 1.114.44.55.707 1.2 1.05 1.805.13.226.235.412.153.735-.16.635.349 1.092.965.938.576-.145 1.148-.37 1.739-.068.094.05.172.007.257-.032.743-.344 1.365-.847 1.906-1.498.51-.615.883-1.355 1.501-1.864-.198-.964-.121-1.185.526-1.531.84-.448.975-.854.548-1.75-.132-.28-.248-.564-.013-.797.586-.574.928-1.397 1.763-1.73.754-.3 1.018-1.071.921-1.925-.1-.865-.194-1.708-.558-2.52a2.325 2.325 0 0 1-.155-1.462c.357-1.567 1.585-2.43 2.462-3.576.41-.535 1.11-.751 1.44-1.375.47-.891.88-1.82 1.346-2.716.246-.472.333-.924.072-1.437-.359.142-.705.356-1.108.413-.409.058-.81.183-1.213.28-.492.118-.96-.166-1.082-.686-.14-.591-.508-.982-.912-1.382-.346-.342-.876-.522-.986-1.098-.092-.475-.35-.835-.65-1.166-.172-.19-.357-.436-.343-.642.053-.776-.449-1.265-.723-1.876a27.478 27.478 0 0 0-1.526-2.929c-.08-.133-.126-.235.041-.343.39.107.396.678.79.785.115-.15-.049-.421.234-.498.194.135.197.378.248.591.072.305.21.567.388.818.622.88 1.416 1.646 1.61 2.816.037.23.194.47.354.642.729.784 1.31 1.612 1.386 2.795.05.776.53 1.074 1.181.8.838-.353 1.637-.812 2.453-1.224a.876.876 0 0 0 .382-.394c.175-.33.487-.494.804-.538.52-.073.83-.42 1.135-.806.395-.5.577-1.161 1.076-1.587.241-.204.125-.433-.08-.572-.346-.24-.624-.586-1.023-.751-.282-.117-.419-.359-.363-.69.024-.144.011-.254-.126-.32-.324.392-.563.868-1.075 1.023-.678.207-.76-.427-.996-.852-.231.227-.496.611-.662.086-.189-.6-.474-1.114-.815-1.615-.182-.263-.031-.54.11-.75.155-.235.374-.094.583-.007.335.144.402.482.541.764.328.66 1.381 1.18 2.018.924.341-.138.563-.057.746.227.474.73 1.17.705 1.873.63.308-.032.614-.071.914.025.255.08.505.11.735-.043.381-.255.73-.046.921.216.4.55.84.979 1.48 1.086.043.318-.256.25-.344.422.056.098.096.21.169.292.41.461.803.388 1.004-.181.036-.102.088-.176.185-.184.102-.007.177.072.196.167.04.205.189.392.118.614-.211.667.066 1.26.29 1.831.555 1.422 1.28 2.766 1.7 4.252.1.355.539.476.764.25.731-.73.852-1.776.767-2.66-.078-.8.1-1.185.659-1.52.187-.111.271-.295.399-.453.347-.425.698-.859 1.105-1.212.255-.22.605-.28.539-.77-.027-.207.2-.289.389-.332.334-.076.69-.113.994-.263.405-.2.62-.051.766.326.158.406.419.665.77.914.475.333.682.943.751 1.53.028.241 0 .434.212.577.256.174.355-.076.49-.205.394-.378.593-.322.727.247M377.685 66.65c.317-.038.63-.149.935-.26a.78.78 0 0 1 .391-.044.8.8 0 0 0-.178.045c-.306.11-.618.221-.936.258-.423.05-.59.399-.89.668.137.096.26.163.381.19-.188.048-.376-.038-.594-.19.301-.27.467-.618.89-.668m2.865 1.013c-.032.005-.064.008-.096.02a.545.545 0 0 1-.304.02.608.608 0 0 0 .09-.02.609.609 0 0 1 .31-.02m1.541.993c-.269.026-.51.16-.77.444.166.034.301.057.416.066-.15.018-.349-.007-.627-.066.325-.358.622-.478.981-.444m-1.2-.139l-.032-.006a.387.387 0 0 1 .069-.01c-.012.011-.024.019-.037.016m-1.641 1.559c.17-.424.604-.66.953-.604a.977.977 0 0 0-.74.604.984.984 0 0 0 .166.03.895.895 0 0 1-.38-.03m-1.157-2.81c.166-.033.332.01.505.133a.903.903 0 0 0 .269.14c-.179.046-.334-.036-.481-.14a.779.779 0 0 0-.293-.133m1.403 1.143c.074-.082.157-.16.15-.29a1.001 1.001 0 0 0-.142-.02 1.16 1.16 0 0 1 .356.02c.004.13-.078.208-.151.29-.138.154-.21.328-.088.52a.369.369 0 0 0 .203.163.356.356 0 0 1-.416-.162c-.121-.193-.048-.367.088-.52m-2.201.94a2.04 2.04 0 0 0 .3-.546c.307-.813.967-1.026 1.684-1.14-.014-.084-.046-.14-.086-.172l.012-.006c.112-.065.251-.031.286.179-.717.113-1.377.326-1.682 1.14a2.067 2.067 0 0 1-.302.545c-.234.293-.19.5.054.665a1.31 1.31 0 0 1-.119.057c-.327-.175-.408-.395-.147-.722m19.405 25.328c-.53-.16-1.013-.413-1.332-.93-.047-.076-.123-.181-.191-.185-.764-.056-1.53-.52-2.29.026-.04-.06-.108-.117-.098-.148.206-.669-.324-.735-.673-.957-.374-.238-.604.02-.852.256-.17.164-.326.345-.613.254-.422-.136-.783-.632-1.34-.096.06-.57.327-.785.588-.974.266-.192.505-.542.393-.746-.2-.365-.221-.766-.373-1.13-.257-.617-1.22-1.272-1.755-1.148-.773.179-1.322-.216-1.697-.83-.306-.502-.71-.817-1.178-1.047-.472-.232-.912-.48-1.521-.425-.497.044-1.142-.076-1.573-.6-.138-.168-.43-.42-.667-.168-.205.218-.779.267-.407.86.108.17-.102.407-.427.544.059-.616.02-1.165.219-1.748-1.129.365-1.88 1.202-2.57 2.139-.48-.555-.934-.748-1.529-.482-.717.321-1.577-.398-1.483-1.22.065-.552.128-1.11.252-1.65.101-.436-.048-.548-.412-.684-.475-.177-.889.094-1.339.06-.477-.038-.531-.08-.33-.556.319-.752.632-1.506.944-2.252-.662-.42-1.275-.202-1.546.504-.306.798-1.015.895-1.662.98-.508.066-.912-.322-1.084-.812-.256-.728-.464-1.446-.19-2.285.39-1.192.688-2.35 1.982-2.841.497-.188.9-.437 1.414-.1.22.147.508.176.753.255.463-.78.86-.971 1.685-.561.226.111.423.23.715.127.274-.099.742.452.633.753-.183.503.054.907.166 1.342.037.143.101.294.284.311.194.02.239-.142.308-.273.274-.527.025-1.056-.032-1.572-.054-.504-.08-.957.257-1.361a5.166 5.166 0 0 1 1.682-1.317c.804-.404 1.082-.825 1.085-1.732 0-.27.05-.606.52-.376-.012-.383.23-.576.512-.737.175-.101.42-.163.504-.322.258-.484.688-.572 1.126-.707.391-.122.815-.255.905-.789a.371.371 0 0 1 .229-.298c.812-.374 1.587-.843 2.454-1.07.153-.042.329-.105.382.194-.276.238-.718.24-.883.683.8-.233 1.6-.46 2.375-.963-.275-.131-.41.036-.57.038-.387.003-.692-.14-.903-.515-.207-.37.027-.5.244-.692.122-.111.241-.287.185-.481-.808-.304-1.394.498-2.153.436.89-.652 1.802-1.323 2.929-1.158 1.158.17 2.108-.317 3.07-.838.255-.138.534-.393.396-.719-.164-.393-.53-.405-.896-.263-.147.056-.305.28-.453.027-.012-.247.273-.246.308-.495-.57-.69-.236-1.641-.54-2.486-.53.338-.966.793-1.6.99-.067-.258-.508-.325-.352-.639.37-.737-.136-.968-.57-1.156-.847-.364-1.704-.541-2.076.689-.063.21-.206.352-.392.46-.18.105-.356.268-.285.508.23.782-.247 1.162-.767 1.43-.618.317-1.117.665-1.244 1.46-.06.367-.668.764-.865.612-.337-.257-.454-.624-.269-1.059.108-.252.274-.493.229-.705-1.121-.65-2.474-.7-3.149-1.979.104-.317.213-.607.455-.752.534-.32.999-.759 1.599-.967.32-.111.77-.154.7-.759.69.193 1.247-.082 1.816-.276-.05-.273-.355-.315-.275-.622.283-.114.518.326.805.107.43-.332.927-.293 1.415-.273.58.023 1.104-.422 1.448-1.224-.554-.298-.787-.27-1.201.174-.181.196-.369.377-.615.466-.174.063-.342.333-.53.135-.217-.228.053-.406.136-.6.01-.024-.01-.065-.022-.13-.541-.024-.94-.148-.597-.904.088-.195-.186-.289-.382-.19-.321.162-.636.341-1.005.542.36.22.581.605.198.71-.61.163-1.133 1.075-1.896.359-.073-.07-.262-.06-.366-.012-.33.15-.65.102-.951-.034-.479-.217-.93-.106-1.411-.001-.382.083-.443.536-.812.682-.143-.647-.5-.732-1.026-.58-.25.072-.573.112-.826-.075-.01-.039-.023-.061-.016-.073.05-.092.105-.183.16-.273-.185-.025-.405.014-.535-.084-.871-.66-1.97-.062-2.853-.608-.014-.008-.037-.006-.054 0-.674.243-1.411.11-2.078.42-.315.147-.669.153-1.016.132-1.227-.071-2.395-.5-3.61-.68a11.483 11.483 0 0 0-3.742.045c-.891.158-1.683.701-2.608.716-.18.003-.398.057-.492.27.04.25.34.312.336.59-.313.2-.6.423-1.007.293-.604-.192-1.11.08-1.626.408.535.511 1.129.148 1.785.194-.468.43-.814.741-1.327.772a5.842 5.842 0 0 0-1.115.202c-.262.069-.672.278-.623.464.181.69-.266.91-.636 1.157.316.593.81.085 1.342.245-.92.704-1.844 1.027-2.768 1.43.19.105.36.096.498.04 1.276-.53 2.625-.933 3.796-1.659.98-.606 2.14-.128 3.032-.857.032-.027.13.052.202.065 1.06.208 2.081.528 3.01 1.142.282.188.479.438.394.748-.108.393.085.688.137 1.036-.11.018-.185.074-.254.181-.197.305.01.757-.068.888-.409.676.138.815.431 1.116.58.595.481 1.3-.206 1.689-.225-.025.052-.401-.292-.378-.263.017-.285.202-.338.373-.37 1.178-1.447 1.88-1.798 3.07-.014.05-.072.084-.11.127-.328.377-.449 1.108-.234 1.578.053.118.003.222.02.302.145.678-.116 1.53.758 1.911.325.142.529.572.419.924-.175.562.05.974.254 1.424.082.182.264.346.13.583-.225.403-.039.628.277.844.17.115.359.26.327.554-.055.51.233.961.691 1.153-.42-1.123-.57-2.363-1.106-3.46-.017-.033-.014-.077-.028-.111-.146-.323-.047-.639.229-.717.294-.083.503.11.572.51.21 1.192.773 2.21 1.45 3.173.441.626.925 1.275.57 2.151-.072.18-.019.293.094.408.313.32.592.67 1.01.865.746.35 1.476.737 2.21 1.118.174.091.32.09.513.023.911-.314 1.022-.267 1.616.55.39.535 1.454.902 2.003.66.54 1.555 1.401 2.771 3.022 3.153.177-.72.562-.849 1.19-.394-.156.248-.057.494.034.733.387 1.017.2 1.915-.478 2.715a6.713 6.713 0 0 0-.83 1.28c-.255.496-.281.866.314 1.07-.119.197-.213.36-.313.519-.394.626-.334 1.036.219 1.504.172.147.305.325.402.54.43.948.687 2.001 1.446 2.754.06.06.085.171.111.262.2.677.58 1.145 1.204 1.462 1.13.574 2.048 1.355 2.116 2.875.037.805-.041 1.605.004 2.415.046.812.047 1.635.16 2.45.133.934.414 1.89.198 2.81-.2.85.296 1.535.249 2.321a.281.281 0 0 0 .045.164c.343.475.745.841.904 1.516.18.759.309.953-.291 1.485.296.166.602.306.717.666.267.843.637 1.61 1.299 2.2.275.248.904.43 1.225.244.175-.103.3-.208.209-.455-.175-.471-.076-.914.16-1.33.261-.459.213-.815-.238-1.112-.212-.14-.507-.461-.367-.637.368-.465.357-1.067.625-1.57-.065-.04-.145-.084-.221-.135-.275-.19-.517-.52-.377-.795.164-.321.421.088.649.125.05.009.1.033.146.046.348-.327.294-.703.12-1.067.222-.284.496-.165.738-.18 1.011-.065 1.336-.732.887-1.67-.156-.326-.59-.316-.629-.74.367-.112.668.048.949.207.428.244.807.061 1.01-.265.656-1.047 1.227-2.148 1.605-3.351.09-.286.12-.57-.02-.835-.15-.284-.05-.477.155-.65.185-.155.352-.38.561-.442.455-.137.792-.698 1.246-.593.649.15.934-.217 1.124-.697.492-1.248.867-2.529.645-3.918-.04-.25-.052-.57.139-.713.491-.368.588-1.008.962-1.453.335-.4.613-.84.693-1.403.089-.622-.128-1.017-.698-1.192"/><path fill="#263238" d="M420.862 86.632c-6.598-7.044-6.598-18.506 0-25.551 6.596-7.045 17.33-7.045 23.927 0 6.597 7.045 6.597 18.507 0 25.551-6.597 7.045-17.33 7.045-23.927 0m26.54 2.792c8.038-8.584 8.038-22.55 0-31.135-8.038-8.583-21.116-8.583-29.154.001-7.597 8.113-8.009 21.032-1.245 29.672l-15.326 16.367 2.612 2.79 15.326-16.366c8.092 7.222 20.19 6.784 27.788-1.33"/><path d="M264.817 40.218c-8.575-3.418-12.948-13.648-9.748-22.805 3.201-9.157 12.78-13.827 21.356-10.409 8.574 3.418 12.947 13.648 9.747 22.805-3.2 9.157-12.78 13.827-21.355 10.41zm26.485-7.75l.376-1.079-3.306-1.317a21.183 21.183 0 0 0 .823-9.21l3.483-.624-.178-1.135-3.486.626a20.844 20.844 0 0 0-3.596-8.413l2.725-2.403-.686-.888-2.723 2.401c-1.87-2.29-4.254-4.155-7.054-5.369l1.234-3.531-1.01-.403-1.234 3.531a17.513 17.513 0 0 0-8.622-.878l-.585-3.72-1.063.191.585 3.722a18.363 18.363 0 0 0-7.878 3.841l-2.25-2.912-.831.733 2.248 2.908c-2.145 1.998-3.892 4.544-5.028 7.533l-3.306-1.318-.378 1.078 3.307 1.32a21.179 21.179 0 0 0-.823 9.207l-3.482.624.178 1.136 3.485-.626a20.855 20.855 0 0 0 3.597 8.414l-2.727 2.402.687.888 2.723-2.402c1.871 2.292 4.254 4.158 7.054 5.37l-1.234 3.531 1.01.402 1.234-3.53a17.502 17.502 0 0 0 8.622.878l.585 3.72 1.064-.191-.586-3.722a18.363 18.363 0 0 0 7.879-3.84l2.25 2.91.83-.733-2.247-2.908c2.144-1.997 3.89-4.542 5.027-7.532l3.307 1.318zm21.498-3.635c-4.324-1.724-6.529-6.883-4.915-11.502 1.614-4.618 6.445-6.973 10.77-5.249 4.323 1.723 6.529 6.882 4.915 11.5-1.614 4.62-6.445 6.974-10.77 5.25zm16.516-.503l1.508-4.313-2.636-1.05c.146-.818.22-1.638.224-2.451l2.77-.496-.714-4.54-2.773.497a14.06 14.06 0 0 0-.958-2.24l2.17-1.91-2.745-3.552-2.166 1.909a12.69 12.69 0 0 0-1.88-1.425l.984-2.813-4.04-1.61-.982 2.814a11.838 11.838 0 0 0-2.295-.24l-.465-2.956-4.252.763.465 2.96c-.725.273-1.428.614-2.096 1.022l-1.789-2.316-3.326 2.931 1.788 2.312a13.39 13.39 0 0 0-1.334 2.008l-2.635-1.05-1.508 4.313 2.635 1.05a14.245 14.245 0 0 0-.224 2.45l-2.769.497.714 4.541 2.773-.497c.255.776.576 1.524.957 2.238l-2.168 1.912 2.744 3.55 2.165-1.908c.577.53 1.206 1.006 1.88 1.424l-.983 2.814 4.04 1.61.983-2.813c.765.154 1.533.235 2.294.238l.465 2.957 4.251-.762-.465-2.961a12.384 12.384 0 0 0 2.097-1.022l1.789 2.316 3.326-2.931-1.788-2.312c.497-.617.942-1.289 1.334-2.009l2.635 1.051zm-33.598 38.582c-5.234-2.086-7.904-8.33-5.95-13.92 1.954-5.59 7.8-8.44 13.036-6.354 5.234 2.086 7.902 8.33 5.95 13.92-1.955 5.59-7.802 8.44-13.036 6.354zm15.65-2.854l1.508-4.314-2.556-1.019c.085-.542.133-1.086.146-1.625l2.69-.483-.714-4.541-2.693.483a12.385 12.385 0 0 0-.635-1.483l2.107-1.858-2.744-3.55-2.104 1.854a11.38 11.38 0 0 0-1.246-.948l.953-2.729-4.039-1.61-.953 2.729c-.51-.09-1.017-.14-1.523-.156l-.452-2.872-4.252.761.452 2.877c-.476.192-.941.42-1.39.678l-1.738-2.25-3.326 2.932 1.738 2.246c-.322.419-.62.862-.888 1.331l-2.556-1.02-1.507 4.314 2.555 1.019a12.714 12.714 0 0 0-.146 1.625l-2.69.484.714 4.54 2.693-.483c.18.51.392 1.006.635 1.485l-2.107 1.856 2.745 3.551 2.104-1.855c.391.344.806.662 1.246.948l-.954 2.73 4.04 1.609.953-2.729c.508.09 1.017.141 1.523.156l.452 2.873 4.252-.763-.453-2.876c.478-.192.941-.418 1.39-.678l1.739 2.25 3.325-2.93-1.737-2.248c.322-.417.619-.86.888-1.33l2.556 1.019z" fill="#FFF"/><mask id="b" fill="#fff"><use xlink:href="#a"/></mask><path fill="#0A7E99" d="M21.963 126.251h101.32v-18.123H21.962z" mask="url(#b)"/><path fill="#1A3455" d="M21.963 106.111h101.32V87.99H21.962z" mask="url(#b)"/><path fill="#263238" d="M31.387 117.584h82.471v-.79h-82.47z" mask="url(#b)"/><path fill="#263238" d="M51.491 117.19c0-1.744-1.323-3.158-2.958-3.158-1.632 0-2.955 1.414-2.955 3.157 0 1.744 1.323 3.158 2.955 3.158 1.635 0 2.958-1.414 2.958-3.158" mask="url(#b)"/><path fill="#263238" d="M50.936 117.19c0-1.417-1.075-2.565-2.402-2.565-1.327 0-2.402 1.148-2.402 2.564 0 1.417 1.075 2.565 2.402 2.565 1.327 0 2.402-1.148 2.402-2.565" mask="url(#b)"/><path fill="#0A7E99" d="M77.705 92.909l5.685 4.142-5.685 4.14V92.91zm-1.05-1.966v12.214l8.385-6.106-8.385-6.108zm15.835 0v1.178l6.769 4.929-6.768 4.929v1.178l8.386-6.107zm-20.887 12.213h1.109V90.942h-1.11zm-2.649 0h1.109V90.942h-1.109zM57.835 90.943v1.178l-6.769 4.929 6.77 4.929v1.178l-8.387-6.107z" mask="url(#b)"/><path fill="#FC611F" d="M121.201 42.854c0-9.493-7.206-17.19-16.096-17.19s-16.099 7.697-16.099 17.19c0 9.494 7.208 17.19 16.099 17.19 8.89 0 16.096-7.696 16.096-17.19m37.476 0c0-9.493-7.206-17.19-16.096-17.19s-16.097 7.697-16.097 17.19c0 9.494 7.207 17.19 16.097 17.19s16.096-7.696 16.096-17.19m37.478 0c0-9.493-7.207-17.19-16.097-17.19s-16.098 7.697-16.098 17.19c0 9.494 7.207 17.19 16.097 17.19s16.098-7.696 16.098-17.19" mask="url(#b)"/><path fill="#263238" d="M107.188 51.515c0-1.23-.933-2.226-2.084-2.226-1.15 0-2.084.997-2.084 2.226s.933 2.225 2.084 2.225 2.084-.996 2.084-2.225m-2.084-17.639c4.555 0 8.684 1.977 11.674 5.172l1.262-1.348c-3.313-3.54-7.89-5.731-12.936-5.731s-9.622 2.192-12.936 5.73l1.261 1.35c2.991-3.196 7.12-5.173 11.675-5.173" mask="url(#b)"/><path fill="#263238" d="M95.007 40.732l1.263 1.348c2.263-2.417 5.388-3.914 8.835-3.914 3.445 0 6.57 1.497 8.834 3.914l1.262-1.348c-2.587-2.762-6.158-4.472-10.096-4.472-3.94 0-7.511 1.71-10.098 4.472" mask="url(#b)"/><path fill="#263238" d="M97.847 43.765l1.262 1.347c1.536-1.64 3.657-2.655 5.995-2.655 2.339 0 4.46 1.015 5.996 2.655l1.262-1.347c-1.86-1.985-4.427-3.215-7.258-3.215-2.83 0-5.397 1.23-7.257 3.215" mask="url(#b)"/><path fill="#263238" d="M100.64 46.747l1.263 1.349c.82-.877 1.953-1.42 3.201-1.42 1.249 0 2.382.543 3.202 1.42l1.263-1.349c-1.144-1.221-2.724-1.977-4.465-1.977-1.74 0-3.32.756-4.464 1.977m43.117-6.341l8.85 6.876v-2.675l-8.85-7.695v-3.368c0-.694-.527-3.205-1.176-3.205-.65 0-1.177 2.511-1.177 3.205v3.368l-8.85 7.695v2.675l8.85-6.876v10.849c0 .067.01.132.02.195l-3.526 2.706v1.212l4.683-2.663 4.683 2.663v-1.212l-3.526-2.706a1.28 1.28 0 0 0 .019-.195V40.406zm36.3 7.564c-2.658 0-4.812-2.3-4.812-5.14 0-2.837 2.154-5.138 4.812-5.138 2.66 0 4.814 2.301 4.814 5.139 0 2.84-2.155 5.14-4.814 5.14zm7.879-6.974a8.878 8.878 0 0 0-1.092-2.815l2.654-4.11-.618-.66-.62-.662-3.847 2.836a7.74 7.74 0 0 0-2.637-1.168l-.844-4.91h-1.749l-.845 4.91a7.744 7.744 0 0 0-2.635 1.168l-3.85-2.836-.618.661-.619.661 2.656 4.11a8.9 8.9 0 0 0-1.093 2.815l-4.599.901v1.869l4.599.9a8.883 8.883 0 0 0 1.093 2.816l-2.656 4.11.619.66.619.662 3.849-2.836a7.779 7.779 0 0 0 2.635 1.167l.845 4.91h1.749l.844-4.91a7.775 7.775 0 0 0 2.637-1.167l3.848 2.836.62-.662.617-.66-2.654-4.11a8.86 8.86 0 0 0 1.092-2.816l4.599-.9v-1.869l-4.6-.9zm222.816 136.681h41.35v-29.955h-41.35z" mask="url(#b)"/><path fill="#FFC107" d="M434.093 161.721c0-3.08-2.339-5.58-5.225-5.58-2.884 0-5.224 2.5-5.224 5.58 0 3.081 2.34 5.58 5.224 5.58 2.886 0 5.225-2.499 5.225-5.58m-5.681-6.989h.915v-3.994h-.915zm0 17.973h.915v-3.994h-.915zm-9.828-10.495h3.74v-.977h-3.74zm16.83 0h3.74v-.977h-3.74zm-11.497 4.108l.647.692-2.644 2.825-.648-.693zm9.256-9.885l.649.693 2.644-2.825-.648-.692zm0 10.577l.649-.692 2.644 2.824-.648.692zm-9.256-9.885l.647-.692-2.644-2.824-.648.691z" mask="url(#b)"/><path fill="#263238" d="M364.7 177.677h41.35v-29.955H364.7zm37.11 35.011h41.352v-29.954H401.81zm-46.051 0h41.35v-29.954h-41.35z" mask="url(#b)"/><path fill="#FFC107" d="M390.6 162.7c0-3.082-2.339-5.58-5.225-5.58-2.885 0-5.223 2.498-5.223 5.58 0 3.08 2.338 5.58 5.223 5.58 2.886 0 5.225-2.5 5.225-5.58m-5.682-6.99h.916v-3.994h-.916zm0 17.973h.916v-3.994h-.916zm-9.828-10.494h3.74v-.979h-3.74zm16.83 0h3.74v-.979h-3.74zm-11.497 4.107l.649.692-2.645 2.824-.648-.69zm9.257-9.885l.648.692 2.645-2.824-.649-.692zm0 10.577l.648-.692 2.645 2.825-.649.691zm-9.257-9.885l.649-.692-2.645-2.824-.648.692z" mask="url(#b)"/><path fill="#FFF" d="M443.807 161.887a5.982 5.982 0 0 0-2.787.697c-1.378-2.048-3.622-3.388-6.163-3.388-3.844 0-7.012 3.054-7.513 7.01a4.35 4.35 0 0 0-2.222-.612c-2.538 0-4.594 2.196-4.594 4.906 0 2.709 2.056 4.905 4.594 4.905 1.79 0 3.34-1.096 4.096-2.692 1.39 1.648 3.398 2.692 5.639 2.692 1.78 0 3.412-.66 4.706-1.754 1.124 1.087 2.609 1.754 4.244 1.754 3.496 0 6.33-3.026 6.33-6.759 0-3.733-2.834-6.759-6.33-6.759m-18.847 40.787h-2.01v-3.72l3.016 1.86-1.005 1.86zm-5.346 0l-1.005-1.86 3.016-1.86v3.72h-2.01zm-2.672-4.945l1.005-1.86 3.016 1.86-3.016 1.86-1.005-1.86zm2.672-4.943h2.011v3.718l-3.016-1.86 1.005-1.858zm5.347 0l1.005 1.859-3.017 1.859v-3.718h2.012zm2.672 4.943l-1.005 1.86-3.016-1.86 3.016-1.86 1.005 1.86zm1.53 0l-1.388-2.566 3.752-2.314-.664-1.225-3.75 2.313-1.388-2.565h-2.776v-4.627h-1.324v4.627h-2.776l-1.386 2.565-3.752-2.313-.663 1.225 3.751 2.314-1.387 2.566 1.387 2.567-3.75 2.313.662 1.225 3.75-2.313 1.388 2.567h2.776v4.625h1.324v-4.625h2.776l1.388-2.567 3.75 2.313.664-1.225-3.752-2.313 1.388-2.567zm-44.254-10.733a5.968 5.968 0 0 0-2.788.698c-1.377-2.05-3.621-3.388-6.162-3.388-3.844 0-7.012 3.053-7.513 7.01a4.353 4.353 0 0 0-2.222-.612c-2.538 0-4.594 2.196-4.594 4.904 0 2.71 2.056 4.907 4.594 4.907 1.79 0 3.338-1.098 4.095-2.694 1.39 1.65 3.398 2.694 5.64 2.694 1.78 0 3.412-.66 4.706-1.755 1.123 1.087 2.609 1.755 4.244 1.755 3.495 0 6.33-3.026 6.33-6.76 0-3.733-2.835-6.76-6.33-6.76m-15.372 18.285c.379-1.336-.432-3.423-.432-3.423s-1.757 1.258-2.136 2.594c-.377 1.334.058 2.012.767 2.24.71.23 1.424-.077 1.801-1.412m15.28 2.453c.379-1.335-.432-3.423-.432-3.423s-1.758 1.258-2.136 2.594c-.377 1.335.057 2.012.767 2.24.71.23 1.423-.076 1.801-1.411m-10.974-.802c.379-1.335-.432-3.423-.432-3.423s-1.758 1.259-2.136 2.594c-.378 1.335.057 2.012.766 2.241.71.23 1.424-.077 1.802-1.412m6.886-1.65c.377-1.336-.433-3.423-.433-3.423s-1.758 1.258-2.135 2.594c-.379 1.334.057 2.012.766 2.24.709.23 1.423-.077 1.802-1.412" mask="url(#b)"/><path fill="#DAEFF2" d="M62.946 229.815h57.293V142.85H62.946z" mask="url(#b)"/><path fill="#FC611F" d="M112.723 203.94c0-2.282-1.731-4.131-3.868-4.131H74.33c-2.136 0-3.87 1.849-3.87 4.131 0 2.283 1.734 4.132 3.87 4.132h34.525c2.137 0 3.868-1.85 3.868-4.132m0 12.395c0-2.282-1.731-4.131-3.868-4.131H74.33c-2.136 0-3.87 1.849-3.87 4.131 0 2.283 1.734 4.132 3.87 4.132h34.525c2.137 0 3.868-1.85 3.868-4.132" mask="url(#b)"/><path fill="#DAEFF2" d="M74.554 217.288H95.91v-1.907H74.554zm0-12.395h33.185v-1.907H74.554z" mask="url(#b)"/><path fill="#1A3455" d="M62.946 191.306h57.293V142.85H62.946z" mask="url(#b)"/><path fill="#263238" d="M107.74 167.078c0-9.522-7.231-17.243-16.147-17.243-8.918 0-16.147 7.72-16.147 17.243 0 9.522 7.229 17.243 16.147 17.243 8.916 0 16.146-7.72 16.146-17.243" mask="url(#b)"/><path fill="#FFC107" d="M105.879 167.078c0-8.426-6.397-15.255-14.286-15.255-7.89 0-14.286 6.83-14.286 15.255 0 8.426 6.396 15.255 14.286 15.255s14.286-6.83 14.286-15.255" mask="url(#b)"/><path fill="#FC611F" d="M77.307 167.078c0 8.426 6.396 15.255 14.286 15.255v-30.51c-7.89 0-14.286 6.83-14.286 15.255" mask="url(#b)"/><path fill="#FFF" d="M97.921 167.078c0-3.733-2.833-6.76-6.328-6.76-3.497 0-6.33 3.027-6.33 6.76 0 3.733 2.833 6.76 6.33 6.76 3.495 0 6.328-3.027 6.328-6.76" mask="url(#b)"/><path fill="#1A3455" d="M341.697 81.52c0-3.428-2.625-6.23-5.833-6.23H149.192c-3.209 0-5.835 2.802-5.835 6.23v111.313h198.34V81.519z" mask="url(#b)"/><path fill="#3E7584" d="M143.358 192.833v8.16c0 3.426 2.625 6.23 5.834 6.23h186.67c3.209 0 5.835-2.804 5.835-6.23v-8.16h-198.34z" mask="url(#b)"/><path fill="#F7F9F6" d="M150.942 185.694h183.17V83.041h-183.17zm91.586 51.016c-4.189 0-7.584-3.626-7.584-8.099 0-4.472 3.395-8.097 7.584-8.097 4.187 0 7.583 3.625 7.583 8.097 0 4.473-3.396 8.1-7.583 8.1zm10.698-29.487h-21.397L227.17 250h30.717l-4.66-42.777z" mask="url(#b)"/><path fill="#3E7584" d="M280.95 245.847h-76.845c-4.767 0-8.668 1.869-8.668 4.153h94.18c0-2.284-3.9-4.153-8.667-4.153" mask="url(#b)"/><path fill="#FECD11" d="M161.373 101.98h5.514v-5.75h-5.514z" mask="url(#b)"/><path fill="#FC611F" d="M168.552 101.98h14.017v-1.917h-14.017zm-7.178 4.382h21.195v-1.918h-21.195zm0 4.381h21.195v-1.917h-21.195zm0 4.381h21.195v-1.916h-21.195zm0 4.382h21.195v-1.917h-21.195zm24.742-17.526h21.196v-1.917h-21.196zm0 4.382h21.196v-1.918h-21.196zm0 4.381h21.196v-1.917h-21.196zm0 4.381h21.196v-1.916h-21.196zm0 4.382h21.196v-1.917h-21.196z" mask="url(#b)"/><path fill="#FECD11" d="M279.169 161.33h5.514v-5.75h-5.514z" mask="url(#b)"/><path fill="#FC611F" d="M286.346 161.33h14.017v-1.917h-14.017zm-7.177 4.381h21.194v-1.916H279.17zm0 4.382h21.194v-1.918H279.17zm0 4.381h21.194v-1.917H279.17zm0 4.382h21.194v-1.917H279.17zm24.744-17.526h21.194v-1.917h-21.195zm0 4.381h21.194v-1.916h-21.195zm0 4.382h21.194v-1.918h-21.195zm0 4.381h21.194v-1.917h-21.195zm0 4.382h21.194v-1.917h-21.195zm-121.591-44.179h16.527v-1.676h-16.527zm0 3.832h24.99v-1.677h-24.99zm0 3.832h24.99v-1.677h-24.99zm0 3.831h24.99v-1.676h-24.99zm0 3.833h24.99v-1.677h-24.99z" mask="url(#b)"/><path fill="#FECD11" d="M177.342 141.321c0-4.594-3.936-8.32-8.791-8.32s-8.79 3.726-8.79 8.32c0 4.595 3.935 8.321 8.79 8.321 4.855 0 8.791-3.726 8.791-8.32" mask="url(#b)"/><path fill="#FFF" d="M168.551 133.364c-4.635 0-8.406 3.57-8.406 7.958 0 4.387 3.771 7.956 8.406 7.956 4.636 0 8.407-3.57 8.407-7.956 0-4.388-3.771-7.958-8.407-7.958m0 16.64c-5.058 0-9.173-3.895-9.173-8.682 0-4.789 4.115-8.685 9.173-8.685 5.06 0 9.174 3.896 9.174 8.685 0 4.787-4.115 8.683-9.174 8.683" mask="url(#b)"/><path fill="#FECD11" d="M168.778 140.97h-.453c-2.987 0-5.431 1.82-5.431 4.046h11.315c0-2.226-2.444-4.047-5.431-4.047" mask="url(#b)"/><path fill="#FFF" d="M163.302 144.653h10.5c-.25-1.861-2.408-3.32-5.024-3.32h-.453c-2.616 0-4.773 1.459-5.023 3.32zm11.291.726H162.51v-.363c0-2.432 2.61-4.41 5.815-4.41h.453c3.207 0 5.815 1.978 5.815 4.41v.363z" mask="url(#b)"/><path fill="#FECD11" d="M171.422 138.42c0-1.905-1.285-2.875-2.87-2.875-1.585 0-2.87.97-2.87 2.875s2.87 4.025 2.87 4.025 2.87-2.12 2.87-4.025" mask="url(#b)"/><path fill="#FFF" d="M168.551 135.909c-1.202 0-2.485.66-2.485 2.511 0 1.402 1.824 3.014 2.485 3.552.663-.538 2.487-2.15 2.487-3.552 0-1.851-1.285-2.511-2.487-2.511zm0 6.996l-.236-.175c-.123-.09-3.017-2.251-3.017-4.31 0-1.936 1.308-3.238 3.253-3.238 1.947 0 3.254 1.302 3.254 3.238 0 2.059-2.895 4.22-3.017 4.31l-.237.175zM208.405 158c0-1.027-.787-1.868-1.75-1.868H161.3c-.962 0-1.75.84-1.75 1.868v5.87c0 1.028.788 1.869 1.75 1.869h45.355c.963 0 1.75-.841 1.75-1.869V158z" mask="url(#b)"/><path fill="#FC611F" d="M161.3 156.6c-.724 0-1.313.628-1.313 1.4v5.87c0 .774.59 1.402 1.313 1.402h45.356c.723 0 1.312-.628 1.312-1.402V158c0-.772-.59-1.4-1.312-1.4H161.3zm45.356 9.605H161.3c-1.207 0-2.186-1.047-2.186-2.335V158c0-1.287.979-2.335 2.186-2.335h45.356c1.205 0 2.186 1.048 2.186 2.335v5.87c0 1.288-.981 2.335-2.186 2.335z" mask="url(#b)"/><path fill="#1A3455" d="M166.562 160.935c0-1.127-.964-2.04-2.154-2.04s-2.155.913-2.155 2.04.966 2.04 2.155 2.04c1.19 0 2.154-.913 2.154-2.04m6.637 0c0-1.127-.966-2.04-2.156-2.04-1.19 0-2.153.913-2.153 2.04s.964 2.04 2.153 2.04c1.19 0 2.156-.913 2.156-2.04m6.635 0c0-1.127-.965-2.04-2.154-2.04-1.19 0-2.155.913-2.155 2.04s.964 2.04 2.155 2.04c1.189 0 2.154-.913 2.154-2.04m6.636 0c0-1.127-.965-2.04-2.155-2.04s-2.155.913-2.155 2.04.966 2.04 2.155 2.04c1.19 0 2.154-.913 2.154-2.04m6.637 0c0-1.127-.966-2.04-2.155-2.04-1.19 0-2.154.913-2.154 2.04s.964 2.04 2.154 2.04 2.155-.913 2.155-2.04" mask="url(#b)"/><path fill="#FFF" d="M208.405 171.45c0-1.027-.787-1.868-1.75-1.868H161.3c-.962 0-1.75.84-1.75 1.868v5.87c0 1.028.788 1.869 1.75 1.869h45.355c.963 0 1.75-.841 1.75-1.869v-5.87z" mask="url(#b)"/><path fill="#FC611F" d="M161.3 170.05c-.724 0-1.313.628-1.313 1.4v5.87c0 .774.59 1.402 1.313 1.402h45.356c.723 0 1.312-.628 1.312-1.402v-5.87c0-.772-.59-1.4-1.312-1.4H161.3zm45.356 9.605H161.3c-1.207 0-2.186-1.046-2.186-2.335v-5.87c0-1.287.979-2.335 2.186-2.335h45.356c1.205 0 2.186 1.048 2.186 2.335v5.87c0 1.289-.981 2.335-2.186 2.335z" mask="url(#b)"/><path fill="#1A3455" d="M166.562 174.385c0-1.127-.964-2.039-2.154-2.039s-2.155.912-2.155 2.04c0 1.126.966 2.039 2.155 2.039 1.19 0 2.154-.913 2.154-2.04m6.637 0c0-1.127-.966-2.039-2.156-2.039-1.19 0-2.153.912-2.153 2.04 0 1.126.964 2.039 2.153 2.039 1.19 0 2.156-.913 2.156-2.04m6.635 0c0-1.127-.965-2.039-2.154-2.039-1.19 0-2.155.912-2.155 2.04 0 1.126.964 2.039 2.155 2.039 1.189 0 2.154-.913 2.154-2.04m6.636 0c0-1.127-.965-2.039-2.155-2.039s-2.155.912-2.155 2.04c0 1.126.966 2.039 2.155 2.039 1.19 0 2.154-.913 2.154-2.04m6.637 0c0-1.127-.966-2.039-2.155-2.039-1.19 0-2.154.912-2.154 2.04 0 1.126.964 2.039 2.154 2.039s2.155-.913 2.155-2.04m6.635 0c0-1.127-.964-2.039-2.154-2.039s-2.155.912-2.155 2.04c0 1.126.964 2.039 2.155 2.039 1.19 0 2.154-.913 2.154-2.04" mask="url(#b)"/><path fill="#2C5871" d="M290.083 109.692c0 7.081 5.376 12.821 12.005 12.821v-12.82h-12.005zm24.011 0h-12.005v12.821c6.63 0 12.005-5.74 12.005-12.82" mask="url(#b)"/><path fill="#FC611F" d="M314.094 109.692c0-7.08-5.375-12.82-12.005-12.82v12.82h12.005z" mask="url(#b)"/><path fill="#FFF" d="M293.6 100.627l8.488 9.065v-12.82c-3.315 0-6.316 1.434-8.489 3.755" mask="url(#b)"/><path fill="#D8EAEA" d="M290.083 109.692h12.005l-8.49-9.066c-2.172 2.321-3.515 5.526-3.515 9.066" mask="url(#b)"/><path fill="#2C5871" d="M302.088 128.106c-6.63 0-12.005 5.74-12.005 12.821h12.005v-12.821z" mask="url(#b)"/><path fill="#D8EAEA" d="M302.088 153.748c6.632 0 12.006-5.74 12.006-12.82h-12.006v12.82z" mask="url(#b)"/><path fill="#FECD11" d="M302.088 140.928h12.006c0-3.542-1.344-6.746-3.516-9.067l-8.49 9.067z" mask="url(#b)"/><path fill="#FFF" d="M302.088 128.106v12.821l8.49-9.066c-2.173-2.32-5.175-3.755-8.49-3.755" mask="url(#b)"/><path fill="#D8EAEA" d="M302.088 140.928l-4.199 12.012c1.308.522 2.723.808 4.2.808v-12.82z" mask="url(#b)"/><path fill="#2C5871" d="M290.083 140.928c0 5.502 3.247 10.193 7.806 12.012l4.199-12.012h-12.005z" mask="url(#b)"/><path fill="#FECD11" d="M228.434 101.98h5.515v-5.75h-5.515z" mask="url(#b)"/><path fill="#FC611F" d="M235.613 101.98h14.017v-1.917h-14.017zm-7.178 4.382h21.195v-1.918h-21.195zm0 4.381h21.195v-1.917h-21.195zm0 4.381h21.195v-1.916h-21.195zm0 4.382h21.195v-1.917h-21.195zm24.744-17.526h21.195v-1.917H253.18zm0 4.382h21.195v-1.918H253.18zm0 4.381h21.195v-1.917H253.18zm0 4.381h21.195v-1.916H253.18zm0 4.382h21.195v-1.917H253.18z" mask="url(#b)"/><path fill="#FECD11" d="M228.434 134.885h5.515v-5.75h-5.515z" mask="url(#b)"/><path fill="#FC611F" d="M235.613 134.885h14.017v-1.918h-14.017zm-7.178 4.381h21.195v-1.917h-21.195zm0 4.381h21.195v-1.917h-21.195zm0 4.383h21.195v-1.918h-21.195zm0 4.38h21.195v-1.918h-21.195zm24.744-17.525h21.195v-1.918H253.18zm0 4.381h21.195v-1.917H253.18zm0 4.381h21.195v-1.917H253.18zm0 4.383h21.195v-1.918H253.18zm0 4.38h21.195v-1.918H253.18z" mask="url(#b)"/><path fill="#FECD11" d="M228.434 161.33h5.515v-5.75h-5.515z" mask="url(#b)"/><path fill="#FC611F" d="M235.613 161.33h14.017v-1.917h-14.017zm-7.178 4.381h21.195v-1.916h-21.195zm0 4.382h21.195v-1.918h-21.195zm0 4.381h21.195v-1.917h-21.195zm0 4.382h21.195v-1.917h-21.195zm24.744-17.526h21.195v-1.917H253.18zm0 4.381h21.195v-1.916H253.18zm0 4.382h21.195v-1.918H253.18zm0 4.381h21.195v-1.917H253.18zm0 4.382h21.195v-1.917H253.18z" mask="url(#b)"/><path fill="#2C5871" d="M211.012 164.871h14.055v-9.607h-14.055z" mask="url(#b)"/><path fill="#FC611F" d="M211.012 160.698l2.698-1.734 3.209 2.631 2.673-1.315 2.572 1.125 2.903-2.256v5.722h-14.055z" mask="url(#b)"/><path fill="#000" d="M214.194 158.963c0-.285-.216-.516-.484-.516-.267 0-.483.231-.483.516 0 .285.216.517.483.517.268 0 .484-.232.484-.517" mask="url(#b)"/><path fill="#FFF" d="M214.067 158.963c0-.21-.16-.38-.356-.38-.197 0-.357.17-.357.38 0 .211.16.38.357.38.196 0 .356-.169.356-.38" mask="url(#b)"/><path fill="#000" d="M217.403 161.628c0-.286-.217-.517-.484-.517-.268 0-.484.231-.484.517 0 .285.216.517.484.517.267 0 .484-.232.484-.517" mask="url(#b)"/><path fill="#FFF" d="M217.276 161.628c0-.21-.16-.38-.357-.38-.197 0-.357.17-.357.38s.16.38.357.38c.197 0 .357-.17.357-.38" mask="url(#b)"/><path fill="#000" d="M220.05 160.282c0-.285-.215-.516-.483-.516-.267 0-.484.23-.484.516 0 .286.217.517.484.517.268 0 .484-.231.484-.517" mask="url(#b)"/><path fill="#FFF" d="M219.924 160.282c0-.21-.16-.38-.357-.38-.197 0-.357.17-.357.38s.16.38.357.38c.197 0 .357-.17.357-.38" mask="url(#b)"/><path fill="#000" d="M222.635 161.4c0-.285-.216-.516-.484-.516-.267 0-.484.231-.484.516 0 .286.217.517.484.517.268 0 .484-.23.484-.517" mask="url(#b)"/><path fill="#FFF" d="M222.508 161.4c0-.21-.16-.38-.356-.38-.198 0-.357.17-.357.38s.16.38.357.38c.196 0 .356-.17.356-.38" mask="url(#b)"/><path fill="#2C5871" d="M217.547 126.215v2.251c2.4 0 4.346 2.079 4.346 4.641 0 2.564-1.946 4.643-4.346 4.643V140c3.564 0 6.454-3.085 6.454-6.894 0-3.806-2.89-6.892-6.454-6.892" mask="url(#b)"/><path fill="#D8EAEA" d="M217.547 128.466v-2.25c-3.565 0-6.455 3.086-6.455 6.892h2.108c0-2.563 1.947-4.642 4.347-4.642" mask="url(#b)"/><path fill="#FC611F" d="M213.2 133.108h-2.108c0 3.807 2.89 6.893 6.455 6.893v-2.252c-2.4 0-4.347-2.078-4.347-4.641" mask="url(#b)"/><path fill="#2C5871" d="M217.547 125.561v-.29c-4.053 0-7.34 3.51-7.34 7.837h.273c0-4.168 3.164-7.547 7.067-7.547m-7.067 7.547h-.273c0 4.329 3.287 7.837 7.34 7.837v-.29c-3.903 0-7.067-3.38-7.067-7.547" mask="url(#b)"/><path fill="#D8EAEA" d="M224.614 133.108c0 4.168-3.165 7.547-7.067 7.547v.29c4.053 0 7.34-3.508 7.34-7.837h-.273z" mask="url(#b)"/><path fill="#FECD11" d="M224.614 133.108h.272c0-4.328-3.286-7.838-7.34-7.838v.291c3.903 0 7.068 3.38 7.068 7.547" mask="url(#b)"/><path fill="#000" d="M217.547 127.414c1.77 0 3.338.922 4.308 2.34l1.127-.877c-1.224-1.789-3.202-2.952-5.435-2.952-3.715 0-6.727 3.216-6.727 7.183h1.394c0-3.144 2.387-5.694 5.333-5.694m5.333 5.694c0 3.145-2.388 5.695-5.334 5.695a5.044 5.044 0 0 1-2.21-.512l-.577 1.354a6.324 6.324 0 0 0 2.787.646c3.716 0 6.728-3.216 6.728-7.183h-1.395z" mask="url(#b)"/><path fill="#3E7584" d="M224.743 105.815v-2.74h-.956a7.194 7.194 0 0 0-.195-.776l.828-.51-1.283-2.373-.83.511a6.712 6.712 0 0 0-.53-.567l.48-.885-2.222-1.371-.48.886a6.025 6.025 0 0 0-.726-.21v-1.02h-2.565v1.02c-.247.054-.49.126-.727.21l-.478-.886-2.222 1.371.48.885a6.871 6.871 0 0 0-.531.567l-.83-.51-1.283 2.371.829.511a7.194 7.194 0 0 0-.196.776h-.955v2.74h.955c.051.264.117.522.196.774l-.829.512 1.283 2.372.83-.51c.167.2.343.388.53.567l-.479.885 2.222 1.37.478-.885c.237.084.48.155.727.21v1.02h2.565v-1.02a6.11 6.11 0 0 0 .726-.21l.48.886 2.221-1.37-.48-.886a6.57 6.57 0 0 0 .531-.568l.83.511 1.283-2.372-.828-.512c.078-.252.145-.51.195-.774h.956z" mask="url(#b)"/><path fill="#1A3455" d="M222.088 104.44c0 2.679-2.033 4.849-4.541 4.849-2.508 0-4.541-2.17-4.541-4.848 0-2.679 2.033-4.85 4.54-4.85 2.509 0 4.542 2.171 4.542 4.85" mask="url(#b)"/><path fill="#FFF" d="M221.298 104.44c0 2.213-1.68 4.006-3.751 4.006-2.072 0-3.751-1.793-3.751-4.005 0-2.212 1.68-4.007 3.75-4.007 2.072 0 3.752 1.795 3.752 4.007" mask="url(#b)"/><path fill="#000" d="M224.743 105.815v-2.74h-.956a7.194 7.194 0 0 0-.195-.776l.828-.51-1.283-2.373-.83.511a6.712 6.712 0 0 0-.53-.567l.48-.885-2.222-1.371-.48.886a6.025 6.025 0 0 0-.726-.21v-1.02h-1.283v15.37h1.283v-1.02a6.11 6.11 0 0 0 .726-.21l.48.886 2.221-1.37-.48-.886a6.57 6.57 0 0 0 .531-.568l.83.511 1.283-2.372-.828-.512c.078-.252.145-.51.195-.774h.956z" mask="url(#b)"/><g fill="#FFF" mask="url(#b)"><path d="M152.748 105.464h44.364v-19.96h-44.364z"/></g><path fill="#FFF" d="M17.574 188.766c-5.815 0-10.547 5.052-10.547 11.262 0 6.209 4.732 11.261 10.547 11.261s10.546-5.052 10.546-11.26c0-6.21-4.731-11.263-10.546-11.263m0 26.906c-8.079 0-14.65-7.019-14.65-15.644 0-8.626 6.571-15.644 14.65-15.644 8.077 0 14.649 7.018 14.649 15.644 0 8.625-6.572 15.644-14.65 15.644" mask="url(#b)"/><path fill="#FFF" d="M15.521 186.574h4.104v-5.312h-4.104zm-8.307 5.491l-3.517-3.757 2.902-3.099 3.517 3.757zM0 202.219h4.975v-4.382H0zm6.599 12.627l-2.902-3.097 3.517-3.757 2.902 3.098zm8.922 3.948h4.104v-5.314h-4.104zm13.028-3.948l-3.518-3.756 2.903-3.098 3.517 3.757zm1.621-12.627h4.976v-4.382H30.17zm-2.238-10.154l-2.9-3.1 3.516-3.756 2.902 3.099zm14.958-32.743c-4.005 0-7.263 3.479-7.263 7.756s3.258 7.757 7.263 7.757 7.264-3.48 7.264-7.757c0-4.277-3.26-7.756-7.264-7.756zm0 17.264c-4.91 0-8.905-4.265-8.905-9.508 0-5.243 3.995-9.51 8.905-9.51 4.91 0 8.905 4.267 8.905 9.51 0 5.243-3.995 9.508-8.905 9.508zm-2.457 5.248h4.914v-2.596l.604-.177a11.135 11.135 0 0 0 2.704-1.202l.545-.333 1.723 1.84 3.475-3.708-1.724-1.842.314-.581a12.87 12.87 0 0 0 1.123-2.888l.165-.646h2.432v-5.246h-2.432l-.165-.646a12.846 12.846 0 0 0-1.123-2.887l-.314-.583 1.724-1.84-3.475-3.71-1.723 1.84-.545-.333a11.172 11.172 0 0 0-2.704-1.202l-.604-.175v-2.598h-4.914v2.598l-.604.175c-.941.275-1.852.679-2.706 1.202l-.543.333-1.724-1.84-3.474 3.71 1.723 1.84-.312.583c-.488.91-.866 1.88-1.124 2.887l-.166.646h-2.431v5.246h2.43l.167.646a12.873 12.873 0 0 0 1.124 2.888l.312.581-1.723 1.842 3.474 3.709 1.724-1.84.543.332c.855.523 1.765.928 2.706 1.202l.604.177v2.596zm6.555 1.753h-8.196v-3.029a12.76 12.76 0 0 1-1.929-.856l-2.007 2.144-5.795-6.188 2.007-2.144a14.701 14.701 0 0 1-.802-2.06h-2.835v-8.752h2.835a14.62 14.62 0 0 1 .802-2.06l-2.006-2.143 5.794-6.189 2.007 2.144a12.67 12.67 0 0 1 1.93-.857v-3.028h8.195v3.028c.661.23 1.307.517 1.93.857l2.005-2.144 5.796 6.189-2.007 2.143c.318.664.585 1.353.802 2.06h2.835v8.753h-2.835a14.929 14.929 0 0 1-.802 2.06l2.007 2.143-5.796 6.188-2.006-2.144a12.68 12.68 0 0 1-1.929.856v3.029z" mask="url(#b)"/></g></svg>